<?xml version="1.0" encoding="UTF-8"?>
<!DOCTYPE svg PUBLIC "-//W3C//DTD SVG 1.1//EN" "http://www.w3.org/Graphics/SVG/1.1/DTD/svg11.dtd">
<!-- Creator: CorelDRAW X6 -->
<svg xmlns="http://www.w3.org/2000/svg" xml:space="preserve" width="1000px" height="181px" version="1.1" style="shape-rendering:geometricPrecision; text-rendering:geometricPrecision; image-rendering:optimizeQuality; fill-rule:evenodd; clip-rule:evenodd"
viewBox="0 0 978 177"
 xmlns:xlink="http://www.w3.org/1999/xlink">
 <defs>
  <style type="text/css">
   <![CDATA[
    .fil0 {fill:#FEFEFE;fill-rule:nonzero}
   ]]>
  </style>
 </defs>
 <g id="Capa_x0020_1">
  <metadata id="CorelCorpID_0Corel-Layer"/>
  <path class="fil0" d="M70 177c54,0 70,-26 70,-88 0,-63 -16,-89 -70,-89 -54,0 -70,26 -70,89 0,63 16,88 70,88zm0 -34c-28,0 -29,-22 -29,-55 0,-33 1,-55 29,-55 28,0 29,22 29,55 0,33 0,55 -29,55zm141 32l0 -72 66 0 0 -33 -66 0 0 -16c0,-16 3,-20 20,-20l49 0 0 -32c-11,0 -35,-1 -49,-1 -32,0 -61,2 -61,44l0 130 40 0zm206 -173c-11,-1 -35,-1 -49,-1 -32,0 -61,2 -61,44l0 87c0,42 29,44 61,44 11,0 37,-1 49,-1l0 -32 -49 0c-17,0 -20,-4 -20,-20l0 -19 66 0 0 -33 -66 0 0 -16c0,-16 3,-20 20,-20l49 0 0 -32zm76 109c4,0 10,1 16,1l34 63 46 0 -39 -69c19,-7 30,-22 30,-51 0,-48 -31,-56 -70,-56 -22,0 -42,2 -58,5l0 170 40 0 0 -64zm0 -78c6,-1 12,-1 18,-1 22,0 29,7 29,23 0,19 -11,24 -30,24 -6,0 -12,0 -17,-1l0 -46zm219 -31l-122 0 0 33 41 0 0 140 41 0 0 -140 41 0 0 -33zm27 173l11 -40 54 0 12 40 43 0 -50 -147c-6,-19 -17,-28 -31,-28 -15,0 -24,8 -31,28l-50 147 42 0zm20 -71l18 -61 18 61 -36 0zm172 -71c13,0 28,2 40,4l0 -32c-12,-3 -30,-5 -48,-5 -40,0 -63,12 -63,51 0,33 19,43 50,53 16,5 25,9 25,21 0,14 -9,18 -25,18 -13,0 -33,-2 -45,-4l0 33c13,3 29,5 47,5 42,0 65,-14 65,-53 0,-31 -13,-45 -48,-54 -19,-5 -29,-7 -29,-21 0,-15 18,-15 31,-15z"/>
 </g>
</svg>
